G75*
%MOIN*%
%OFA0B0*%
%FSLAX25Y25*%
%IPPOS*%
%LPD*%
%AMOC8*
5,1,8,0,0,1.08239X$1,22.5*
%
%ADD10C,0.13800*%
%ADD11R,0.06800X0.06800*%
%ADD12R,0.05930X0.05930*%
%ADD13R,0.05162X0.05162*%
%ADD14R,0.07835X0.07835*%
%ADD15C,0.06737*%
%ADD16C,0.08000*%
%ADD17C,0.03778*%
D10*
X0020800Y0032300D03*
X0020800Y0257300D03*
X0370800Y0257300D03*
X0370800Y0032300D03*
D11*
X0367300Y0150800D03*
X0357300Y0150800D03*
X0347300Y0150800D03*
X0317300Y0150800D03*
X0307300Y0150800D03*
X0297300Y0150800D03*
X0267300Y0150800D03*
X0257300Y0150800D03*
X0247300Y0150800D03*
X0217300Y0150800D03*
X0207300Y0150800D03*
X0197300Y0150800D03*
X0172300Y0150800D03*
X0162300Y0150800D03*
X0152300Y0150800D03*
X0142300Y0150800D03*
X0132300Y0150800D03*
X0132300Y0190800D03*
X0142300Y0190800D03*
X0152300Y0190800D03*
X0162300Y0190800D03*
X0172300Y0190800D03*
X0197300Y0190800D03*
X0207300Y0190800D03*
X0217300Y0190800D03*
X0247300Y0190800D03*
X0257300Y0190800D03*
X0267300Y0190800D03*
X0297300Y0190800D03*
X0307300Y0190800D03*
X0317300Y0190800D03*
X0347300Y0190800D03*
X0357300Y0190800D03*
X0367300Y0190800D03*
X0367300Y0230800D03*
X0357300Y0230800D03*
X0347300Y0230800D03*
X0317300Y0230800D03*
X0307300Y0230800D03*
X0297300Y0230800D03*
X0267300Y0230800D03*
X0257300Y0230800D03*
X0247300Y0230800D03*
X0217300Y0230800D03*
X0207300Y0230800D03*
X0197300Y0230800D03*
X0172300Y0230800D03*
X0162300Y0230800D03*
X0152300Y0230800D03*
X0142300Y0230800D03*
X0132300Y0230800D03*
D12*
X0076300Y0221800D03*
X0066300Y0221800D03*
X0056300Y0221800D03*
X0046300Y0221800D03*
X0036300Y0221800D03*
X0026300Y0221800D03*
X0016300Y0221800D03*
X0016300Y0211800D03*
X0026300Y0211800D03*
X0036300Y0211800D03*
X0046300Y0211800D03*
X0056300Y0211800D03*
X0066300Y0211800D03*
X0076300Y0211800D03*
X0076300Y0201800D03*
X0066300Y0201800D03*
X0066300Y0191800D03*
X0076300Y0191800D03*
X0076300Y0181800D03*
X0066300Y0181800D03*
X0056300Y0181800D03*
X0046300Y0181800D03*
X0036300Y0181800D03*
X0026300Y0181800D03*
X0016300Y0181800D03*
X0016300Y0171800D03*
X0026300Y0171800D03*
X0026300Y0161800D03*
X0036300Y0161800D03*
X0046300Y0161800D03*
X0046300Y0171800D03*
X0036300Y0171800D03*
X0056300Y0171800D03*
X0056300Y0161800D03*
X0066300Y0161800D03*
X0076300Y0161800D03*
X0076300Y0171800D03*
X0066300Y0171800D03*
X0056300Y0191800D03*
X0056300Y0201800D03*
X0046300Y0201800D03*
X0036300Y0201800D03*
X0036300Y0191800D03*
X0046300Y0191800D03*
X0026300Y0191800D03*
X0016300Y0191800D03*
X0016300Y0201800D03*
X0026300Y0201800D03*
X0351800Y0062300D03*
X0351800Y0052300D03*
D13*
X0071300Y0070300D03*
X0061300Y0070300D03*
X0051300Y0070300D03*
X0052300Y0139300D03*
X0062300Y0139300D03*
X0072300Y0139300D03*
D14*
X0114300Y0043800D03*
X0134300Y0043800D03*
X0134300Y0013800D03*
X0114300Y0013800D03*
D15*
X0360331Y0086300D02*
X0366269Y0086300D01*
X0366269Y0096300D02*
X0360331Y0096300D01*
X0360331Y0110800D02*
X0366269Y0110800D01*
X0366269Y0120800D02*
X0360331Y0120800D01*
D16*
X0022300Y0113300D03*
X0022300Y0103300D03*
X0022300Y0071300D03*
X0022300Y0061300D03*
D17*
X0087800Y0081800D03*
X0109800Y0083300D03*
X0126389Y0102550D03*
X0134381Y0101881D03*
X0126389Y0112644D03*
X0126389Y0116222D03*
X0126800Y0119800D03*
X0131534Y0122389D03*
X0134994Y0123989D03*
X0136872Y0129167D03*
X0139800Y0139111D03*
X0126800Y0139722D03*
X0126800Y0143300D03*
X0126389Y0136089D03*
X0126389Y0130806D03*
X0118011Y0127606D03*
X0118011Y0120450D03*
X0110265Y0118611D03*
X0106800Y0117011D03*
X0101800Y0115411D03*
X0097800Y0113811D03*
X0114811Y0107844D03*
X0080800Y0108300D03*
X0044300Y0118300D03*
X0015940Y0149711D03*
X0013207Y0154707D03*
X0010618Y0157800D03*
X0007992Y0211800D03*
X0069300Y0242300D03*
X0083740Y0227740D03*
X0086770Y0229770D03*
X0089800Y0231800D03*
X0090300Y0212300D03*
X0089800Y0190180D03*
X0090800Y0183800D03*
X0094300Y0179300D03*
X0090800Y0146300D03*
X0093722Y0143300D03*
X0097300Y0140300D03*
X0101222Y0137300D03*
X0104800Y0137800D03*
X0108722Y0137800D03*
X0112300Y0137800D03*
X0184300Y0153800D03*
X0184469Y0158131D03*
X0188373Y0160389D03*
X0191800Y0162022D03*
X0218300Y0172300D03*
X0238111Y0177300D03*
X0247300Y0177300D03*
X0242989Y0184800D03*
X0237811Y0184300D03*
X0238111Y0164300D03*
X0253300Y0164300D03*
X0257300Y0160389D03*
X0274300Y0155211D03*
X0283300Y0162978D03*
X0292300Y0174800D03*
X0307300Y0160389D03*
X0331330Y0152830D03*
X0334009Y0155211D03*
X0351300Y0129800D03*
X0353300Y0116300D03*
X0322159Y0079659D03*
X0324747Y0077070D03*
X0314172Y0077211D03*
X0311300Y0079800D03*
X0297300Y0071800D03*
X0292300Y0068300D03*
X0288300Y0069211D03*
X0273278Y0070184D03*
X0274800Y0054800D03*
X0270300Y0054436D03*
X0266300Y0054436D03*
X0262300Y0054436D03*
X0250800Y0060800D03*
X0237300Y0059001D03*
X0227300Y0052300D03*
X0230300Y0066347D03*
X0229031Y0082300D03*
X0230300Y0089300D03*
X0223800Y0094800D03*
X0225821Y0098800D03*
X0221800Y0099300D03*
X0217300Y0106300D03*
X0233300Y0107800D03*
X0237360Y0113860D03*
X0241569Y0119771D03*
X0243200Y0123200D03*
X0250684Y0119800D03*
X0256742Y0113742D03*
X0271186Y0125186D03*
X0276294Y0130511D03*
X0294800Y0133300D03*
X0299300Y0123300D03*
X0283889Y0112300D03*
X0299300Y0104800D03*
X0292941Y0098441D03*
X0295472Y0095911D03*
X0263300Y0095222D03*
X0262300Y0098800D03*
X0250800Y0085300D03*
X0209812Y0092800D03*
X0199300Y0105300D03*
X0207300Y0073300D03*
X0202300Y0068216D03*
X0199829Y0070805D03*
X0156534Y0063627D03*
X0153830Y0066330D03*
X0144906Y0063406D03*
X0140025Y0066025D03*
X0148800Y0076300D03*
X0154630Y0074308D03*
X0140800Y0083300D03*
X0155300Y0057300D03*
X0196644Y0031300D03*
X0200222Y0031699D03*
X0237385Y0017885D03*
X0244779Y0024420D03*
X0250696Y0026196D03*
X0312800Y0057800D03*
X0352300Y0025300D03*
X0245506Y0134171D03*
X0247800Y0137300D03*
X0239411Y0142800D03*
X0229589Y0139349D03*
X0182300Y0197300D03*
X0157300Y0220800D03*
X0237995Y0219345D03*
X0243611Y0221300D03*
X0247300Y0218300D03*
X0265300Y0213300D03*
X0297300Y0223300D03*
X0330889Y0222800D03*
X0286300Y0249300D03*
X0333800Y0255300D03*
X0332489Y0182300D03*
X0098300Y0038300D03*
M02*
