G75*
%MOIN*%
%OFA0B0*%
%FSLAX25Y25*%
%IPPOS*%
%LPD*%
%AMOC8*
5,1,8,0,0,1.08239X$1,22.5*
%
%ADD10C,0.02000*%
D10*
X0014800Y0069800D02*
X0014876Y0069802D01*
X0014952Y0069808D01*
X0015027Y0069817D01*
X0015102Y0069831D01*
X0015176Y0069848D01*
X0015249Y0069869D01*
X0015321Y0069893D01*
X0015392Y0069922D01*
X0015461Y0069953D01*
X0015528Y0069988D01*
X0015593Y0070027D01*
X0015657Y0070069D01*
X0015718Y0070114D01*
X0015777Y0070162D01*
X0015833Y0070213D01*
X0015887Y0070267D01*
X0015938Y0070323D01*
X0015986Y0070382D01*
X0016031Y0070443D01*
X0016073Y0070507D01*
X0016112Y0070572D01*
X0016147Y0070639D01*
X0016178Y0070708D01*
X0016207Y0070779D01*
X0016231Y0070851D01*
X0016252Y0070924D01*
X0016269Y0070998D01*
X0016283Y0071073D01*
X0016292Y0071148D01*
X0016298Y0071224D01*
X0016300Y0071300D01*
X0016298Y0071376D01*
X0016292Y0071452D01*
X0016283Y0071527D01*
X0016269Y0071602D01*
X0016252Y0071676D01*
X0016231Y0071749D01*
X0016207Y0071821D01*
X0016178Y0071892D01*
X0016147Y0071961D01*
X0016112Y0072028D01*
X0016073Y0072093D01*
X0016031Y0072157D01*
X0015986Y0072218D01*
X0015938Y0072277D01*
X0015887Y0072333D01*
X0015833Y0072387D01*
X0015777Y0072438D01*
X0015718Y0072486D01*
X0015657Y0072531D01*
X0015593Y0072573D01*
X0015528Y0072612D01*
X0015461Y0072647D01*
X0015392Y0072678D01*
X0015321Y0072707D01*
X0015249Y0072731D01*
X0015176Y0072752D01*
X0015102Y0072769D01*
X0015027Y0072783D01*
X0014952Y0072792D01*
X0014876Y0072798D01*
X0014800Y0072800D01*
X0014724Y0072798D01*
X0014648Y0072792D01*
X0014573Y0072783D01*
X0014498Y0072769D01*
X0014424Y0072752D01*
X0014351Y0072731D01*
X0014279Y0072707D01*
X0014208Y0072678D01*
X0014139Y0072647D01*
X0014072Y0072612D01*
X0014007Y0072573D01*
X0013943Y0072531D01*
X0013882Y0072486D01*
X0013823Y0072438D01*
X0013767Y0072387D01*
X0013713Y0072333D01*
X0013662Y0072277D01*
X0013614Y0072218D01*
X0013569Y0072157D01*
X0013527Y0072093D01*
X0013488Y0072028D01*
X0013453Y0071961D01*
X0013422Y0071892D01*
X0013393Y0071821D01*
X0013369Y0071749D01*
X0013348Y0071676D01*
X0013331Y0071602D01*
X0013317Y0071527D01*
X0013308Y0071452D01*
X0013302Y0071376D01*
X0013300Y0071300D01*
X0013302Y0071224D01*
X0013308Y0071148D01*
X0013317Y0071073D01*
X0013331Y0070998D01*
X0013348Y0070924D01*
X0013369Y0070851D01*
X0013393Y0070779D01*
X0013422Y0070708D01*
X0013453Y0070639D01*
X0013488Y0070572D01*
X0013527Y0070507D01*
X0013569Y0070443D01*
X0013614Y0070382D01*
X0013662Y0070323D01*
X0013713Y0070267D01*
X0013767Y0070213D01*
X0013823Y0070162D01*
X0013882Y0070114D01*
X0013943Y0070069D01*
X0014007Y0070027D01*
X0014072Y0069988D01*
X0014139Y0069953D01*
X0014208Y0069922D01*
X0014279Y0069893D01*
X0014351Y0069869D01*
X0014424Y0069848D01*
X0014498Y0069831D01*
X0014573Y0069817D01*
X0014648Y0069808D01*
X0014724Y0069802D01*
X0014800Y0069800D01*
X0014800Y0111800D02*
X0014876Y0111802D01*
X0014952Y0111808D01*
X0015027Y0111817D01*
X0015102Y0111831D01*
X0015176Y0111848D01*
X0015249Y0111869D01*
X0015321Y0111893D01*
X0015392Y0111922D01*
X0015461Y0111953D01*
X0015528Y0111988D01*
X0015593Y0112027D01*
X0015657Y0112069D01*
X0015718Y0112114D01*
X0015777Y0112162D01*
X0015833Y0112213D01*
X0015887Y0112267D01*
X0015938Y0112323D01*
X0015986Y0112382D01*
X0016031Y0112443D01*
X0016073Y0112507D01*
X0016112Y0112572D01*
X0016147Y0112639D01*
X0016178Y0112708D01*
X0016207Y0112779D01*
X0016231Y0112851D01*
X0016252Y0112924D01*
X0016269Y0112998D01*
X0016283Y0113073D01*
X0016292Y0113148D01*
X0016298Y0113224D01*
X0016300Y0113300D01*
X0016298Y0113376D01*
X0016292Y0113452D01*
X0016283Y0113527D01*
X0016269Y0113602D01*
X0016252Y0113676D01*
X0016231Y0113749D01*
X0016207Y0113821D01*
X0016178Y0113892D01*
X0016147Y0113961D01*
X0016112Y0114028D01*
X0016073Y0114093D01*
X0016031Y0114157D01*
X0015986Y0114218D01*
X0015938Y0114277D01*
X0015887Y0114333D01*
X0015833Y0114387D01*
X0015777Y0114438D01*
X0015718Y0114486D01*
X0015657Y0114531D01*
X0015593Y0114573D01*
X0015528Y0114612D01*
X0015461Y0114647D01*
X0015392Y0114678D01*
X0015321Y0114707D01*
X0015249Y0114731D01*
X0015176Y0114752D01*
X0015102Y0114769D01*
X0015027Y0114783D01*
X0014952Y0114792D01*
X0014876Y0114798D01*
X0014800Y0114800D01*
X0014724Y0114798D01*
X0014648Y0114792D01*
X0014573Y0114783D01*
X0014498Y0114769D01*
X0014424Y0114752D01*
X0014351Y0114731D01*
X0014279Y0114707D01*
X0014208Y0114678D01*
X0014139Y0114647D01*
X0014072Y0114612D01*
X0014007Y0114573D01*
X0013943Y0114531D01*
X0013882Y0114486D01*
X0013823Y0114438D01*
X0013767Y0114387D01*
X0013713Y0114333D01*
X0013662Y0114277D01*
X0013614Y0114218D01*
X0013569Y0114157D01*
X0013527Y0114093D01*
X0013488Y0114028D01*
X0013453Y0113961D01*
X0013422Y0113892D01*
X0013393Y0113821D01*
X0013369Y0113749D01*
X0013348Y0113676D01*
X0013331Y0113602D01*
X0013317Y0113527D01*
X0013308Y0113452D01*
X0013302Y0113376D01*
X0013300Y0113300D01*
X0013302Y0113224D01*
X0013308Y0113148D01*
X0013317Y0113073D01*
X0013331Y0112998D01*
X0013348Y0112924D01*
X0013369Y0112851D01*
X0013393Y0112779D01*
X0013422Y0112708D01*
X0013453Y0112639D01*
X0013488Y0112572D01*
X0013527Y0112507D01*
X0013569Y0112443D01*
X0013614Y0112382D01*
X0013662Y0112323D01*
X0013713Y0112267D01*
X0013767Y0112213D01*
X0013823Y0112162D01*
X0013882Y0112114D01*
X0013943Y0112069D01*
X0014007Y0112027D01*
X0014072Y0111988D01*
X0014139Y0111953D01*
X0014208Y0111922D01*
X0014279Y0111893D01*
X0014351Y0111869D01*
X0014424Y0111848D01*
X0014498Y0111831D01*
X0014573Y0111817D01*
X0014648Y0111808D01*
X0014724Y0111802D01*
X0014800Y0111800D01*
M02*
