%
M48
M72
T01C0.01378
T02C0.02362
T03C0.03130
T04C0.03937
T05C0.04000
T06C0.04690
T07C0.04800
T08C0.13000
%
T01
X99300Y39300
X141025Y67025
X145906Y64406
X154830Y67330
X157534Y64627
X156300Y58300
X155630Y75308
X149800Y77300
X141800Y84300
X135381Y102881
X127389Y103550
X127389Y113644
X127389Y117222
X127800Y120800
X132534Y123389
X135994Y124989
X137872Y130167
X127389Y131806
X127389Y137089
X127800Y140722
X127800Y144300
X140800Y140111
X119011Y128606
X119011Y121450
X111265Y119611
X107800Y118011
X102800Y116411
X98800Y114811
X115811Y108844
X110800Y84300
X88800Y82800
X81800Y109300
X45300Y119300
X16940Y150711
X14207Y155707
X11618Y158800
X8992Y212800
X70300Y243300
X84740Y228740
X87770Y230770
X90800Y232800
X91300Y213300
X90800Y191180
X91800Y184800
X95300Y180300
X91800Y147300
X94722Y144300
X98300Y141300
X102222Y138300
X105800Y138800
X109722Y138800
X113300Y138800
X185300Y154800
X185469Y159131
X189373Y161389
X192800Y163022
X219300Y173300
X238811Y185300
X243989Y185800
X248300Y178300
X239111Y178300
X239111Y165300
X254300Y165300
X258300Y161389
X275300Y156211
X284300Y163978
X293300Y175800
X308300Y161389
X332330Y153830
X335009Y156211
X352300Y130800
X354300Y117300
X323159Y80659
X325747Y78070
X315172Y78211
X312300Y80800
X298300Y72800
X293300Y69300
X289300Y70211
X274278Y71184
X275800Y55800
X271300Y55436
X267300Y55436
X263300Y55436
X251800Y61800
X238300Y60001
X228300Y53300
X231300Y67347
X230031Y83300
X231300Y90300
X224800Y95800
X226821Y99800
X222800Y100300
X218300Y107300
X234300Y108800
X238360Y114860
X242569Y120771
X244200Y124200
X251684Y120800
X257742Y114742
X272186Y126186
X277294Y131511
X295800Y134300
X300300Y124300
X284889Y113300
X300300Y105800
X291800Y99800
X295398Y95864
X264300Y96222
X263300Y99800
X251800Y86300
X210812Y93800
X200300Y106300
X246506Y135171
X248800Y138300
X240411Y143800
X230589Y140349
X183300Y198300
X158300Y221800
X238995Y220345
X244611Y222300
X248300Y219300
X266300Y214300
X298300Y224300
X331889Y223800
X287300Y250300
X334800Y256300
X333489Y183300
X208300Y74300
X203300Y69216
X199471Y71805
X201222Y32699
X197644Y32300
X238385Y18885
X245779Y25420
X251696Y27196
X313800Y58800
X353300Y26300
T02
X72300Y71300
X62300Y71300
X52300Y71300
X53300Y140300
X63300Y140300
X73300Y140300
T03
X77300Y162800
X67300Y162800
X57300Y162800
X47300Y162800
X37300Y162800
X27300Y162800
X27300Y172800
X17300Y172800
X17300Y182800
X27300Y182800
X37300Y182800
X37300Y172800
X47300Y172800
X57300Y172800
X57300Y182800
X47300Y182800
X47300Y192800
X57300Y192800
X67300Y192800
X77300Y192800
X77300Y182800
X67300Y182800
X67300Y172800
X77300Y172800
X37300Y192800
X27300Y192800
X17300Y192800
X17300Y202800
X27300Y202800
X27300Y212800
X17300Y212800
X17300Y222800
X27300Y222800
X37300Y222800
X47300Y222800
X57300Y222800
X67300Y222800
X77300Y222800
X77300Y212800
X67300Y212800
X67300Y202800
X77300Y202800
X57300Y202800
X47300Y202800
X47300Y212800
X57300Y212800
X37300Y212800
X37300Y202800
X352800Y63300
X352800Y53300
T04
X364300Y87300
X364300Y97300
X364300Y111800
X364300Y121800
T05
X368300Y151800
X358300Y151800
X348300Y151800
X318300Y151800
X308300Y151800
X298300Y151800
X268300Y151800
X258300Y151800
X248300Y151800
X218300Y151800
X208300Y151800
X198300Y151800
X173300Y151800
X163300Y151800
X153300Y151800
X143300Y151800
X133300Y151800
X133300Y191800
X143300Y191800
X153300Y191800
X163300Y191800
X173300Y191800
X198300Y191800
X208300Y191800
X218300Y191800
X248300Y191800
X258300Y191800
X268300Y191800
X298300Y191800
X308300Y191800
X318300Y191800
X348300Y191800
X358300Y191800
X368300Y191800
X368300Y231800
X358300Y231800
X348300Y231800
X318300Y231800
X308300Y231800
X298300Y231800
X268300Y231800
X258300Y231800
X248300Y231800
X218300Y231800
X208300Y231800
X198300Y231800
X173300Y231800
X163300Y231800
X153300Y231800
X143300Y231800
X133300Y231800
T06
X135300Y44800
X115300Y44800
X115300Y14800
X135300Y14800
T07
X23300Y62300
X23300Y72300
X23300Y104300
X23300Y114300
T08
X21800Y33300
X21800Y258300
X371800Y258300
X371800Y33300
M30
