G75*
%MOIN*%
%OFA0B0*%
%FSLAX25Y25*%
%IPPOS*%
%LPD*%
%AMOC8*
5,1,8,0,0,1.08239X$1,22.5*
%
%ADD10C,0.02000*%
D10*
X0015800Y0070800D02*
X0015876Y0070802D01*
X0015952Y0070808D01*
X0016027Y0070817D01*
X0016102Y0070831D01*
X0016176Y0070848D01*
X0016249Y0070869D01*
X0016321Y0070893D01*
X0016392Y0070922D01*
X0016461Y0070953D01*
X0016528Y0070988D01*
X0016593Y0071027D01*
X0016657Y0071069D01*
X0016718Y0071114D01*
X0016777Y0071162D01*
X0016833Y0071213D01*
X0016887Y0071267D01*
X0016938Y0071323D01*
X0016986Y0071382D01*
X0017031Y0071443D01*
X0017073Y0071507D01*
X0017112Y0071572D01*
X0017147Y0071639D01*
X0017178Y0071708D01*
X0017207Y0071779D01*
X0017231Y0071851D01*
X0017252Y0071924D01*
X0017269Y0071998D01*
X0017283Y0072073D01*
X0017292Y0072148D01*
X0017298Y0072224D01*
X0017300Y0072300D01*
X0017298Y0072376D01*
X0017292Y0072452D01*
X0017283Y0072527D01*
X0017269Y0072602D01*
X0017252Y0072676D01*
X0017231Y0072749D01*
X0017207Y0072821D01*
X0017178Y0072892D01*
X0017147Y0072961D01*
X0017112Y0073028D01*
X0017073Y0073093D01*
X0017031Y0073157D01*
X0016986Y0073218D01*
X0016938Y0073277D01*
X0016887Y0073333D01*
X0016833Y0073387D01*
X0016777Y0073438D01*
X0016718Y0073486D01*
X0016657Y0073531D01*
X0016593Y0073573D01*
X0016528Y0073612D01*
X0016461Y0073647D01*
X0016392Y0073678D01*
X0016321Y0073707D01*
X0016249Y0073731D01*
X0016176Y0073752D01*
X0016102Y0073769D01*
X0016027Y0073783D01*
X0015952Y0073792D01*
X0015876Y0073798D01*
X0015800Y0073800D01*
X0015724Y0073798D01*
X0015648Y0073792D01*
X0015573Y0073783D01*
X0015498Y0073769D01*
X0015424Y0073752D01*
X0015351Y0073731D01*
X0015279Y0073707D01*
X0015208Y0073678D01*
X0015139Y0073647D01*
X0015072Y0073612D01*
X0015007Y0073573D01*
X0014943Y0073531D01*
X0014882Y0073486D01*
X0014823Y0073438D01*
X0014767Y0073387D01*
X0014713Y0073333D01*
X0014662Y0073277D01*
X0014614Y0073218D01*
X0014569Y0073157D01*
X0014527Y0073093D01*
X0014488Y0073028D01*
X0014453Y0072961D01*
X0014422Y0072892D01*
X0014393Y0072821D01*
X0014369Y0072749D01*
X0014348Y0072676D01*
X0014331Y0072602D01*
X0014317Y0072527D01*
X0014308Y0072452D01*
X0014302Y0072376D01*
X0014300Y0072300D01*
X0014302Y0072224D01*
X0014308Y0072148D01*
X0014317Y0072073D01*
X0014331Y0071998D01*
X0014348Y0071924D01*
X0014369Y0071851D01*
X0014393Y0071779D01*
X0014422Y0071708D01*
X0014453Y0071639D01*
X0014488Y0071572D01*
X0014527Y0071507D01*
X0014569Y0071443D01*
X0014614Y0071382D01*
X0014662Y0071323D01*
X0014713Y0071267D01*
X0014767Y0071213D01*
X0014823Y0071162D01*
X0014882Y0071114D01*
X0014943Y0071069D01*
X0015007Y0071027D01*
X0015072Y0070988D01*
X0015139Y0070953D01*
X0015208Y0070922D01*
X0015279Y0070893D01*
X0015351Y0070869D01*
X0015424Y0070848D01*
X0015498Y0070831D01*
X0015573Y0070817D01*
X0015648Y0070808D01*
X0015724Y0070802D01*
X0015800Y0070800D01*
X0015800Y0112800D02*
X0015876Y0112802D01*
X0015952Y0112808D01*
X0016027Y0112817D01*
X0016102Y0112831D01*
X0016176Y0112848D01*
X0016249Y0112869D01*
X0016321Y0112893D01*
X0016392Y0112922D01*
X0016461Y0112953D01*
X0016528Y0112988D01*
X0016593Y0113027D01*
X0016657Y0113069D01*
X0016718Y0113114D01*
X0016777Y0113162D01*
X0016833Y0113213D01*
X0016887Y0113267D01*
X0016938Y0113323D01*
X0016986Y0113382D01*
X0017031Y0113443D01*
X0017073Y0113507D01*
X0017112Y0113572D01*
X0017147Y0113639D01*
X0017178Y0113708D01*
X0017207Y0113779D01*
X0017231Y0113851D01*
X0017252Y0113924D01*
X0017269Y0113998D01*
X0017283Y0114073D01*
X0017292Y0114148D01*
X0017298Y0114224D01*
X0017300Y0114300D01*
X0017298Y0114376D01*
X0017292Y0114452D01*
X0017283Y0114527D01*
X0017269Y0114602D01*
X0017252Y0114676D01*
X0017231Y0114749D01*
X0017207Y0114821D01*
X0017178Y0114892D01*
X0017147Y0114961D01*
X0017112Y0115028D01*
X0017073Y0115093D01*
X0017031Y0115157D01*
X0016986Y0115218D01*
X0016938Y0115277D01*
X0016887Y0115333D01*
X0016833Y0115387D01*
X0016777Y0115438D01*
X0016718Y0115486D01*
X0016657Y0115531D01*
X0016593Y0115573D01*
X0016528Y0115612D01*
X0016461Y0115647D01*
X0016392Y0115678D01*
X0016321Y0115707D01*
X0016249Y0115731D01*
X0016176Y0115752D01*
X0016102Y0115769D01*
X0016027Y0115783D01*
X0015952Y0115792D01*
X0015876Y0115798D01*
X0015800Y0115800D01*
X0015724Y0115798D01*
X0015648Y0115792D01*
X0015573Y0115783D01*
X0015498Y0115769D01*
X0015424Y0115752D01*
X0015351Y0115731D01*
X0015279Y0115707D01*
X0015208Y0115678D01*
X0015139Y0115647D01*
X0015072Y0115612D01*
X0015007Y0115573D01*
X0014943Y0115531D01*
X0014882Y0115486D01*
X0014823Y0115438D01*
X0014767Y0115387D01*
X0014713Y0115333D01*
X0014662Y0115277D01*
X0014614Y0115218D01*
X0014569Y0115157D01*
X0014527Y0115093D01*
X0014488Y0115028D01*
X0014453Y0114961D01*
X0014422Y0114892D01*
X0014393Y0114821D01*
X0014369Y0114749D01*
X0014348Y0114676D01*
X0014331Y0114602D01*
X0014317Y0114527D01*
X0014308Y0114452D01*
X0014302Y0114376D01*
X0014300Y0114300D01*
X0014302Y0114224D01*
X0014308Y0114148D01*
X0014317Y0114073D01*
X0014331Y0113998D01*
X0014348Y0113924D01*
X0014369Y0113851D01*
X0014393Y0113779D01*
X0014422Y0113708D01*
X0014453Y0113639D01*
X0014488Y0113572D01*
X0014527Y0113507D01*
X0014569Y0113443D01*
X0014614Y0113382D01*
X0014662Y0113323D01*
X0014713Y0113267D01*
X0014767Y0113213D01*
X0014823Y0113162D01*
X0014882Y0113114D01*
X0014943Y0113069D01*
X0015007Y0113027D01*
X0015072Y0112988D01*
X0015139Y0112953D01*
X0015208Y0112922D01*
X0015279Y0112893D01*
X0015351Y0112869D01*
X0015424Y0112848D01*
X0015498Y0112831D01*
X0015573Y0112817D01*
X0015648Y0112808D01*
X0015724Y0112802D01*
X0015800Y0112800D01*
M02*
