%
M48
M72
T01C0.01378
T02C0.02362
T03C0.03130
T04C0.03937
T05C0.04000
T06C0.04690
T07C0.04800
T08C0.13000
%
T01
X98300Y38300
X140025Y66025
X144906Y63406
X153830Y66330
X156534Y63627
X155300Y57300
X154630Y74308
X148800Y76300
X140800Y83300
X134381Y101881
X126389Y102550
X114811Y107844
X106800Y117011
X110265Y118611
X118011Y120450
X118011Y127606
X126389Y130806
X126389Y136089
X126800Y139722
X126800Y143300
X139800Y139111
X136872Y129167
X134994Y123989
X131534Y122389
X126800Y119800
X126389Y116222
X126389Y112644
X101800Y115411
X97800Y113811
X80800Y108300
X44300Y118300
X15940Y149711
X13207Y154707
X10618Y157800
X7992Y211800
X69300Y242300
X83740Y227740
X86770Y229770
X89800Y231800
X90300Y212300
X89800Y190180
X90800Y183800
X94300Y179300
X90800Y146300
X93722Y143300
X97300Y140300
X101222Y137300
X104800Y137800
X108722Y137800
X112300Y137800
X184300Y153800
X184469Y158131
X188373Y160389
X191800Y162022
X218300Y172300
X238111Y177300
X247300Y177300
X242989Y184800
X237811Y184300
X238111Y164300
X253300Y164300
X257300Y160389
X274300Y155211
X283300Y162978
X292300Y174800
X307300Y160389
X331330Y152830
X334009Y155211
X351300Y129800
X353300Y116300
X322159Y79659
X324747Y77070
X314172Y77211
X311300Y79800
X297300Y71800
X292300Y68300
X288300Y69211
X273278Y70184
X274800Y54800
X270300Y54436
X266300Y54436
X262300Y54436
X250800Y60800
X237300Y59001
X227300Y52300
X230300Y66347
X229031Y82300
X230300Y89300
X223800Y94800
X225821Y98800
X221800Y99300
X217300Y106300
X233300Y107800
X237360Y113860
X241569Y119771
X243200Y123200
X250684Y119800
X256742Y113742
X271186Y125186
X276294Y130511
X294800Y133300
X299300Y123300
X283889Y112300
X299300Y104800
X292941Y98441
X295472Y95911
X263300Y95222
X262300Y98800
X250800Y85300
X209812Y92800
X199300Y105300
X207300Y73300
X202300Y68216
X199829Y70805
X200222Y31699
X196644Y31300
X237385Y17885
X244779Y24420
X250696Y26196
X312800Y57800
X352300Y25300
X245506Y134171
X247800Y137300
X239411Y142800
X229589Y139349
X182300Y197300
X157300Y220800
X237995Y219345
X243611Y221300
X247300Y218300
X265300Y213300
X297300Y223300
X330889Y222800
X286300Y249300
X333800Y255300
X332489Y182300
X109800Y83300
X87800Y81800
T02
X71300Y70300
X61300Y70300
X51300Y70300
X52300Y139300
X62300Y139300
X72300Y139300
T03
X76300Y161800
X66300Y161800
X66300Y171800
X76300Y171800
X76300Y181800
X66300Y181800
X56300Y181800
X46300Y181800
X36300Y181800
X26300Y181800
X16300Y181800
X16300Y171800
X26300Y171800
X26300Y161800
X36300Y161800
X46300Y161800
X46300Y171800
X36300Y171800
X56300Y171800
X56300Y161800
X56300Y191800
X56300Y201800
X46300Y201800
X36300Y201800
X36300Y191800
X46300Y191800
X26300Y191800
X16300Y191800
X16300Y201800
X26300Y201800
X26300Y211800
X16300Y211800
X16300Y221800
X26300Y221800
X36300Y221800
X46300Y221800
X56300Y221800
X66300Y221800
X76300Y221800
X76300Y211800
X66300Y211800
X56300Y211800
X46300Y211800
X36300Y211800
X66300Y201800
X76300Y201800
X76300Y191800
X66300Y191800
X351800Y62300
X351800Y52300
T04
X363300Y86300
X363300Y96300
X363300Y110800
X363300Y120800
T05
X367300Y150800
X357300Y150800
X347300Y150800
X317300Y150800
X307300Y150800
X297300Y150800
X267300Y150800
X257300Y150800
X247300Y150800
X217300Y150800
X207300Y150800
X197300Y150800
X172300Y150800
X162300Y150800
X152300Y150800
X142300Y150800
X132300Y150800
X132300Y190800
X142300Y190800
X152300Y190800
X162300Y190800
X172300Y190800
X197300Y190800
X207300Y190800
X217300Y190800
X247300Y190800
X257300Y190800
X267300Y190800
X297300Y190800
X307300Y190800
X317300Y190800
X347300Y190800
X357300Y190800
X367300Y190800
X367300Y230800
X357300Y230800
X347300Y230800
X317300Y230800
X307300Y230800
X297300Y230800
X267300Y230800
X257300Y230800
X247300Y230800
X217300Y230800
X207300Y230800
X197300Y230800
X172300Y230800
X162300Y230800
X152300Y230800
X142300Y230800
X132300Y230800
T06
X134300Y43800
X114300Y43800
X114300Y13800
X134300Y13800
T07
X22300Y61300
X22300Y71300
X22300Y103300
X22300Y113300
T08
X20800Y32300
X20800Y257300
X370800Y257300
X370800Y32300
M30
